<?xml version="1.0" standalone="no"?>
<!DOCTYPE svg PUBLIC "-//W3C//DTD SVG 20010904//EN"
 "http://www.w3.org/TR/2001/REC-SVG-20010904/DTD/svg10.dtd">
<svg version="1.0" xmlns="http://www.w3.org/2000/svg"
 width="4001.000000pt" height="4001.000000pt" viewBox="0 0 4001.000000 4001.000000"
 preserveAspectRatio="xMidYMid meet">
<metadata>
Created by potrace 1.14, written by Peter Selinger 2001-2017
</metadata>
<g transform="translate(0.000000,4001.000000) scale(0.100000,-0.100000)"
fill="#000000" stroke="none">
<path d="M19667 37634 c-1 -1 -103 -5 -227 -9 -124 -4 -254 -9 -290 -10 -229
-12 -363 -20 -470 -30 -30 -2 -89 -7 -130 -10 -191 -15 -308 -26 -333 -31 -10
-1 -50 -6 -90 -9 -39 -3 -83 -8 -97 -10 -22 -3 -54 -7 -165 -20 -68 -8 -141
-17 -165 -20 -84 -12 -181 -25 -225 -31 -16 -2 -41 -6 -55 -8 -22 -5 -60 -10
-135 -21 -54 -7 -117 -17 -190 -30 -44 -8 -96 -17 -115 -20 -66 -11 -255 -46
-405 -76 -82 -17 -163 -33 -180 -35 -16 -3 -46 -9 -65 -14 -19 -5 -51 -12 -70
-15 -19 -3 -51 -10 -70 -15 -51 -14 -211 -51 -240 -56 -102 -19 -643 -162
-895 -238 -5 -1 -30 -8 -55 -15 -25 -7 -88 -26 -140 -43 -52 -16 -102 -31
-110 -33 -29 -6 -495 -163 -610 -204 -63 -23 -122 -44 -130 -46 -18 -4 -301
-111 -345 -129 -16 -7 -91 -37 -165 -66 -74 -29 -150 -59 -168 -67 -19 -8 -91
-38 -160 -68 -135 -56 -338 -145 -462 -202 -41 -19 -120 -55 -175 -81 -129
-59 -659 -325 -795 -398 -139 -74 -402 -220 -465 -257 -27 -16 -66 -39 -85
-50 -30 -17 -158 -92 -208 -122 -9 -6 -44 -26 -77 -46 -624 -371 -1396 -916
-2015 -1422 -236 -193 -233 -190 -395 -331 -49 -43 -103 -90 -120 -104 -35
-30 -189 -168 -221 -197 -12 -11 -75 -69 -140 -130 -322 -299 -867 -849 -1051
-1061 -48 -56 -150 -170 -167 -187 -10 -11 -59 -67 -109 -126 -50 -58 -93
-108 -97 -111 -22 -20 -383 -463 -480 -590 -19 -25 -37 -47 -40 -50 -7 -6
-202 -264 -250 -329 -89 -123 -280 -391 -310 -436 -19 -27 -37 -52 -40 -55 -4
-3 -9 -12 -13 -20 -6 -13 -81 -125 -105 -155 -14 -19 -139 -211 -237 -365 -54
-85 -108 -171 -120 -190 -54 -84 -305 -510 -305 -517 0 -3 -8 -17 -18 -31 -11
-15 -37 -61 -59 -102 -22 -41 -51 -93 -63 -115 -21 -37 -46 -83 -149 -275 -48
-89 -314 -623 -364 -730 -77 -165 -179 -394 -247 -555 -39 -93 -78 -183 -85
-200 -32 -71 -207 -521 -249 -640 -26 -71 -49 -137 -53 -145 -44 -115 -247
-730 -258 -780 -2 -8 -10 -35 -18 -60 -9 -25 -32 -101 -52 -170 -37 -128 -42
-145 -50 -180 -2 -12 -9 -35 -15 -53 -25 -75 -157 -598 -176 -697 -2 -14 -7
-31 -9 -38 -5 -13 -51 -220 -59 -262 -2 -14 -11 -57 -20 -95 -8 -39 -17 -83
-20 -98 -2 -15 -12 -62 -20 -104 -9 -43 -18 -89 -20 -103 -3 -14 -16 -86 -30
-160 -26 -143 -35 -193 -42 -250 -2 -19 -7 -48 -11 -65 -3 -16 -7 -37 -8 -45
-6 -46 -26 -179 -29 -197 -3 -11 -7 -44 -11 -73 -4 -29 -8 -61 -10 -70 -2 -10
-8 -62 -15 -116 -6 -55 -13 -110 -15 -124 -6 -39 -14 -100 -20 -160 -3 -30 -8
-71 -11 -90 -2 -20 -6 -60 -9 -90 -3 -30 -7 -75 -9 -100 -8 -74 -20 -202 -31
-345 -3 -44 -8 -98 -10 -120 -2 -22 -7 -87 -10 -145 -3 -58 -8 -139 -10 -180
-15 -241 -19 -431 -19 -920 -1 -591 9 -910 39 -1315 3 -33 7 -91 10 -130 3
-38 7 -88 10 -110 2 -22 7 -74 10 -115 4 -41 8 -88 10 -105 3 -16 7 -59 10
-94 6 -75 43 -397 49 -426 2 -11 7 -47 11 -80 4 -32 8 -67 10 -76 2 -10 6 -46
10 -80 4 -35 8 -66 10 -69 2 -4 7 -31 10 -61 3 -30 8 -61 10 -69 3 -8 7 -31 9
-50 5 -38 25 -162 42 -260 3 -19 8 -48 10 -65 3 -16 7 -41 10 -55 3 -14 8 -36
10 -50 7 -37 23 -122 28 -150 12 -53 16 -76 21 -110 3 -19 8 -42 10 -50 2 -8
6 -26 9 -40 2 -14 16 -81 31 -150 15 -69 28 -132 30 -140 15 -74 112 -479 136
-570 17 -63 33 -122 34 -130 2 -8 14 -49 25 -90 12 -41 23 -83 25 -93 33 -162
398 -1288 464 -1432 5 -11 25 -63 44 -115 78 -214 288 -722 383 -928 19 -41
34 -75 34 -77 0 -1 25 -56 56 -121 31 -66 69 -148 86 -183 38 -83 259 -524
310 -621 94 -174 126 -234 221 -405 124 -224 347 -597 485 -815 123 -193 293
-453 301 -460 3 -3 11 -13 16 -22 10 -17 66 -98 154 -225 195 -280 725 -979
791 -1043 3 -3 25 -30 50 -60 47 -58 365 -430 419 -490 396 -441 1009 -1064
1277 -1297 20 -17 175 -157 198 -178 6 -6 45 -39 86 -75 41 -36 83 -73 95 -84
27 -25 482 -404 525 -438 62 -48 255 -199 270 -211 164 -132 671 -495 970
-695 381 -254 953 -603 1230 -750 36 -19 70 -37 75 -42 6 -4 57 -32 115 -62
58 -31 141 -75 185 -98 105 -56 509 -258 608 -304 322 -150 422 -195 625 -282
253 -109 414 -173 732 -294 313 -118 786 -279 1060 -360 41 -13 93 -28 115
-35 103 -33 706 -197 766 -209 13 -2 80 -18 149 -36 69 -17 143 -35 165 -39
22 -5 105 -23 185 -41 80 -17 156 -33 170 -36 14 -2 54 -11 90 -19 36 -8 81
-17 100 -20 19 -3 80 -14 135 -25 108 -21 128 -25 220 -40 33 -5 71 -12 85
-14 14 -3 43 -7 65 -11 22 -3 47 -7 55 -10 8 -2 35 -6 60 -9 25 -4 56 -8 70
-11 14 -2 41 -7 60 -9 92 -14 107 -16 140 -21 19 -3 49 -7 65 -9 77 -10 139
-18 154 -21 9 -1 43 -6 76 -9 33 -4 71 -9 85 -11 39 -5 119 -14 190 -21 36 -3
72 -7 80 -9 8 -1 51 -6 95 -10 44 -4 94 -8 110 -10 17 -2 68 -6 115 -10 47 -3
101 -8 120 -10 19 -2 78 -7 130 -10 52 -3 129 -8 170 -11 41 -3 109 -7 150 -9
41 -2 149 -7 240 -12 320 -16 1357 -9 1680 12 25 1 99 6 165 9 66 4 135 9 154
11 18 3 77 7 130 10 53 4 107 8 121 10 14 2 61 7 105 10 44 3 91 8 105 10 14
2 61 7 105 11 44 3 88 8 97 9 9 2 48 7 85 10 37 4 77 9 88 11 11 2 45 6 76 9
31 3 66 7 78 10 12 2 50 7 84 10 34 4 64 8 67 10 3 2 34 6 70 10 36 3 72 8 80
10 8 3 76 14 150 25 162 25 149 23 335 55 83 14 157 28 165 30 8 2 31 6 50 9
48 8 251 48 355 71 6 1 28 5 50 10 22 4 126 27 230 52 105 24 201 46 215 49
14 2 33 7 42 10 9 3 25 6 35 9 10 2 81 19 158 39 126 33 196 51 485 131 47 12
117 33 155 44 39 12 115 36 170 53 266 81 823 270 955 323 19 8 125 49 235 91
335 129 745 303 1090 464 140 65 678 334 790 395 55 30 125 67 155 83 30 16
71 38 90 49 130 73 177 99 195 110 11 7 27 15 35 20 8 4 38 20 65 36 28 17 65
38 84 49 19 11 117 70 218 131 101 62 192 117 201 122 36 21 235 148 322 205
363 239 654 443 975 684 145 108 483 372 495 386 3 3 25 21 50 40 24 19 52 42
61 50 9 8 36 31 60 50 24 19 50 42 59 50 8 8 36 31 60 50 25 19 50 40 55 45 6
6 57 51 115 101 58 49 107 91 110 94 3 3 50 45 105 95 429 386 840 791 1231
1214 32 36 66 72 74 81 8 9 42 47 75 84 33 38 65 74 71 80 15 16 159 181 219
251 28 33 64 75 80 95 17 19 48 58 70 85 22 28 42 52 46 55 3 3 81 100 173
215 92 116 174 218 182 228 9 10 32 42 52 70 20 29 42 59 49 67 18 21 156 205
171 227 45 65 214 300 223 311 5 7 93 137 195 290 101 152 188 282 194 289 5
7 10 14 10 17 0 3 28 49 63 103 60 93 287 467 330 543 10 19 36 64 57 100 52
90 79 137 110 195 15 28 54 100 87 160 92 169 163 305 251 480 81 162 242 494
242 500 0 2 21 47 46 102 41 88 64 139 69 153 2 5 21 49 63 140 11 25 43 101
72 170 28 69 67 161 85 205 46 109 193 493 245 640 23 66 57 161 75 210 38
104 125 370 184 565 23 74 50 162 61 195 10 33 33 112 50 175 17 63 36 126 40
140 24 64 203 791 235 950 2 14 14 68 25 120 11 52 22 103 24 115 2 11 15 79
29 150 15 72 29 147 32 169 3 21 7 41 9 45 2 3 7 26 10 51 3 25 8 56 11 70 2
14 7 36 9 50 3 14 8 43 11 65 3 22 7 51 10 65 7 36 13 76 21 129 4 25 8 55 10
66 3 11 7 38 9 60 3 22 7 51 10 65 5 27 12 79 20 150 3 25 7 56 10 70 2 14 7
48 10 75 5 56 14 122 21 175 3 19 7 55 10 79 2 25 6 63 8 85 3 23 8 68 11 101
3 33 7 78 10 100 2 22 7 72 10 110 3 39 8 90 10 115 6 60 16 207 30 440 38
637 38 1390 0 2065 -11 195 -29 437 -40 540 -2 22 -7 69 -10 105 -8 88 -15
158 -20 200 -2 19 -6 62 -10 95 -3 33 -8 71 -10 85 -2 14 -9 70 -15 125 -6 55
-13 111 -15 125 -7 42 -24 162 -30 215 -3 28 -8 59 -10 70 -2 11 -11 67 -20
125 -8 58 -17 116 -20 130 -3 14 -14 79 -25 145 -11 66 -22 131 -25 145 -14
71 -57 298 -61 320 -2 14 -7 36 -10 50 -8 35 -13 60 -19 95 -3 17 -12 57 -20
90 -7 33 -23 105 -35 160 -12 55 -38 165 -57 245 -19 80 -36 152 -38 161 -6
27 -74 289 -90 344 -8 28 -42 145 -74 260 -33 116 -70 239 -81 275 -12 36 -23
72 -25 80 -28 120 -273 821 -397 1136 -34 88 -63 161 -63 164 -1 3 -7 18 -13
33 -7 15 -30 74 -53 130 -23 56 -52 126 -65 155 -13 29 -24 55 -24 57 0 2 -11
28 -24 57 -13 29 -47 107 -77 173 -192 437 -469 993 -680 1368 -22 38 -39 70
-39 72 0 2 -55 98 -121 212 -67 114 -129 222 -139 238 -20 35 -182 299 -238
387 -56 90 -350 532 -417 628 -215 310 -618 848 -772 1031 -12 13 -90 107
-174 209 -145 175 -394 462 -485 560 -23 25 -52 56 -63 68 -167 194 -890 917
-1084 1085 -12 10 -40 35 -62 56 -85 78 -323 288 -399 352 -16 13 -36 31 -45
40 -15 14 -220 184 -265 219 -11 8 -35 29 -55 46 -58 50 -355 281 -506 394
-77 58 -144 109 -150 113 -5 4 -35 25 -65 47 -30 22 -59 43 -65 48 -73 60
-658 456 -875 592 -47 29 -107 68 -135 85 -109 70 -496 300 -637 378 -26 15
-83 46 -125 70 -786 443 -1791 895 -2688 1209 -143 49 -486 165 -520 175 -5 1
-39 11 -75 22 -121 38 -505 151 -525 155 -11 3 -51 14 -90 25 -100 28 -480
124 -615 155 -63 15 -133 31 -155 36 -64 15 -318 69 -345 74 -14 2 -36 7 -50
10 -25 6 -46 10 -135 26 -27 4 -70 13 -95 18 -42 10 -72 15 -160 28 -19 3 -42
7 -50 9 -8 2 -28 6 -45 9 -16 3 -46 8 -65 11 -19 3 -60 10 -90 15 -30 5 -71
11 -90 14 -57 8 -113 17 -139 21 -13 2 -45 7 -70 11 -25 3 -56 7 -67 9 -12 2
-48 7 -80 10 -33 4 -67 9 -78 11 -10 2 -44 6 -75 9 -31 3 -67 8 -81 10 -23 4
-57 8 -165 20 -22 2 -60 7 -85 9 -25 3 -72 8 -105 11 -33 3 -78 8 -100 10 -96
10 -237 22 -360 30 -49 3 -108 8 -130 10 -22 2 -94 7 -160 10 -66 4 -145 8
-175 10 -197 12 -1193 27 -1203 19z"/>
</g>
</svg>
